# xmcd
#
# Track frame offsets:
#	150
#	18343
#	35316
#	45175
#	61494
#	82218
#	93098
#	110924
#	122014
#	137085
#	153038
#	166284
#	179471
#	198671
#
# Disc length: 2865 seconds
#
# Revision: 0
# Processed by: cddbd v1.5.2PL0 Copyright (c) Steve Scherf et al.
# Submitted via: dBpowerAMP V4.0
#
DISCID=b40b2f0e
DTITLE=Galvão - Poeta na área. Se derrubar é penalti
DYEAR=2009
DGENRE=Country
TTITLE0=Poetas da Era Bill Gates 
TTITLE1=Se inscreva na São Silvestre 
TTITLE2=Ela Menina - Santo Antonio Amigo
TTITLE3=Definição Sui Generis
TTITLE4=São Francisco Help!
TTITLE5=CPI das Espingardas e Badogues 
TTITLE6=Dr. Coitinho
TTITLE7=Ai tem coisa!
TTITLE8=UM e-mail para Waldez Ludwig
TTITLE9=Amar-te
TTITLE10=Olhos de Gude
TTITLE11=Algodão no Ouvido
TTITLE12=A lourinha americana
TTITLE13=Tun! Tun! Tun!
EXTD=
EXTT0=
EXTT1=
EXTT2=
EXTT3=
EXTT4=
EXTT5=
EXTT6=
EXTT7=
EXTT8=
EXTT9=
EXTT10=
EXTT11=
EXTT12=
EXTT13=
PLAYORDER=
